<svg xmlns="http://www.w3.org/2000/svg" xmlns:xlink="http://www.w3.org/1999/xlink" baseProfile="tiny" width="788.7" height="143.3" overflow="visible" xmlns:v="https://vecta.io/nano"><path d="M585.6 42.7c-3.1 0-8.3.4-11.4 1.4-9.5 3.1-21.9 13.4-17.8 29.7.2.6 1.9 3.9 2.5 4.8 2.3 2.9 5.6 4.7 9.7 4.7a12.12 12.12 0 0 0 12.2-12.2 12.12 12.12 0 0 0-12.2-12.2c-2.7 0-5 .8-7.2 2.3 0-.4 1.9-8 9.1-12.4 1.9-1.2 9.3-5 16.3-1.7 18.4 8.5 11.1 42.3 9.1 47.1-1.9 4.8-8.9 25.6-46.4 42.3-.4.2 8.3-.6 13-2.1 39.8-12.8 47.5-42.7 48.9-47.5s1.9-12.4 1.6-16.5c-.6-8.3-6.9-27.1-27.4-27.7h0zM25 51.8c5.8-1.7 10.6-8.8 21.5-8.8C63.2 43 73 56 73 74.5c0 18.8-12.4 36.6-39.3 36.6-5.7 0-10.6-.8-15.3-2.5l-5.9 4.1-2.3-1.4c2.5-5.5 2.5-9.9 2.5-19.1V21.1c0-6.2-2.4-8.6-10.6-8.6l-.7-3.1C14.5 8.1 25 2.9 25 2.9v48.9zm0 4.1V95c0 5.9 3.1 11 12.3 11 12.3 0 23.2-10 23.2-27.7 0-13.6-5.8-27.4-20.8-27.4-5.6 0-11.1 4.2-14.7 5zm124 19.6c0 18.1-13 35.6-35.6 35.6-17.2 0-31.4-12-31.4-32.5C82 60.5 95 43 117.8 43c17 0 31.2 12.1 31.2 32.5zm-13.1 2.8c0-19.2-10.7-29.7-21.9-29.7-13.3 0-18.8 11.6-18.8 27.1 0 19.2 10.7 29.8 21.9 29.8 13.4.1 18.8-11.6 18.8-27.2z"/><use xlink:href="#B"/><use xlink:href="#B" x="80.6"/><path d="M373.3 68.1h-41.4s-.3 2.3-.3 6.2c0 17.7 8.9 27.6 23.6 27.6 8.3 0 13.6-2 17.8-4.2l1.1 2.7c-5.8 6.5-14 10.7-24.9 10.7-20.1 0-30.1-14.4-30.1-32.5S332.3 43 353.3 43c14.8 0 22.2 8.5 22.2 23.2l-2.2 1.9zm-10.2-5.6s.1-1 .1-2.1c0-8.8-5.1-12.4-12.9-12.4-8.5 0-16 6.5-17.9 16.3l30.7-1.8z"/><use xlink:href="#C"/><use xlink:href="#B" x="312.6"/><path d="M647.5 31.3v14h21.8v6.6h-21.8v39.7c0 6.1 2.7 11.6 10.6 11.6 8.5 0 13.4-2.3 13.4-2.3l.4 3.4c-3.8 3.4-10.3 6.8-19.4 6.8-10.5 0-17.2-6.4-17.2-18.1V51.6h-9.9l-.4-3.1s6.6-2.5 11.4-7.3c5.1-5.1 7.6-10.9 7.6-10.9l3.5 1zm84.8 36.8h-41.4s-.3 2.3-.3 6.2c0 17.7 8.9 27.6 23.6 27.6 8.3 0 13.6-2 17.8-4.2l1.1 2.7c-5.8 6.5-14 10.7-24.9 10.7-20.1 0-30.1-14.4-30.1-32.5S691.3 43 712.4 43c14.8 0 22.2 8.5 22.2 23.2l-2.3 1.9zm-10.1-5.6s.1-1 .1-2.1c0-8.8-5.1-12.4-12.9-12.4-8.5 0-16 6.5-17.9 16.3l30.7-1.8z"/><use xlink:href="#C" x="359.1"/><defs ><path id="B" d="M232.1 105v3.8s-9.3-.4-15.5-.4c-6.9 0-17 .4-17 .4V105l3-.6c4.2-.8 7.5-4.1 7.5-9.5V63.2c0-7.6-3.8-11.6-11.2-11.6-7.5 0-12.9 4.8-18.2 5.8v38.7c0 6.6 1 7.9 5.5 8.3l4.5.6v3.8s-9.8-.4-16.1-.4c-6.4 0-17.5.4-17.5.4V105l4-.6c4.2-.6 7.5-4.1 7.5-9.5V61.2c0-6.1-2.4-8.5-10.6-8.5l-.8-3.1c13.1-1.3 23.6-6.5 23.6-6.5v10.3c3.4-1 11.9-10.5 22.9-10.5 12.6 0 18.5 8.2 18.5 18.7v34.5c0 6.6 1.1 7.8 5.7 8.3l4.2.6z"/><path id="C" d="M424.7 62.9h-4.1c0-7.1-4.1-15.1-14.1-15.1-7.5 0-11.2 5.1-11.2 9.9 0 14.7 32.5 13 32.5 34.3 0 12.4-10.2 19.1-23.6 19.1-9 0-12.4-3-18.8-3 0 0 0-1.1-.7-18.9h3.7c1.7 10.3 8.1 16.1 16.7 16.1 7.2 0 12.6-3.7 12.6-9.6 0-15.3-31.8-12.6-31.8-34.2 0-9.9 8.2-18.5 22.3-18.5 6.9 0 12.3 2.8 17.4 2.8l-.9 17.1z"/></defs></svg>