<?xml version="1.0" encoding="UTF-8"?>
<svg overflow="visible" baseProfile="tiny" version="1.2" viewBox="0 0 941.7 204.6" xml:space="preserve" xmlns="http://www.w3.org/2000/svg">

	<path d="m308.3 127.2c-3.1 0-5.8-1.7-7.5-4.3l-24-37.6v49h2.6c4.3 0 7.8 3.5 7.8 7.8s-3.5 7.8-7.8 7.8h-22.6c-4.3 0-7.8-3.5-7.8-7.8s3.5-7.8 7.8-7.8h2.6v-71.6h-2.6c-4.3 0-7.8-3.5-7.8-7.8s3.5-7.8 7.8-7.8h12.2c4.3 0 7 2.6 8.7 5.3l30.6 50.3 31.2-51.3c1.7-2.7 3.8-4.3 8.1-4.3h12.2c4.3 0 7.8 3.5 7.8 7.8s-3.5 7.8-7.8 7.8h-2.6v71.6h2.6c4.3 0 7.8 3.5 7.8 7.8s-3.5 7.8-7.8 7.8h-22.6c-4.3 0-7.8-3.5-7.8-7.8s3.5-7.8 7.8-7.8h2.6v-49l-24 37.6c-1.7 2.6-4.4 4.3-7.5 4.3z"/>
	<path d="m448.6 136.2c3.8 0 6.9 3.1 6.9 6.9s-3.1 6.9-6.9 6.9h-12.1c-4.6 0-7.9-3.1-8.2-7.3-2.3 4.4-7.9 9.2-16.5 9.2-22.2 0-27.3-13.6-27.3-28.6v-29h-3.5c-3.8 0-6.9-2.9-6.9-6.9 0-3.8 3.1-6.9 6.9-6.9h12.2c4.4 0 7.8 3.8 7.8 8.2v34.4c0 7 2.4 13.7 13.7 13.7 11.2 0 13.6-6.7 13.6-13.7v-28.8h-3.5c-3.8 0-6.9-2.9-6.9-6.9 0-3.8 3.1-6.9 6.9-6.9h12.2c4.4 0 7.8 3.8 7.8 8.2v47.4h3.8z"/>
	<path d="m491 92.8c-5.7 0-9 2-9 5.8 0 11.3 37.6 6.1 37.6 31.3 0 14.4-12.2 21.7-28 21.7-13.1 0-23.2-6-27-10.7-1.2-1.5-1.8-2.9-1.8-4.7 0-4 3.4-7.3 7.3-7.3 1.5 0 3.1 0.5 4.7 1.8 4.1 3.4 9.2 6.3 16.8 6.3 6.9 0 11.3-1.8 11.3-6.1 0-12.4-37.4-6-37.4-31.9 0-13.7 11.5-20.5 25.5-20.5 10.8 0 20.5 4.1 24.7 9.5 0.9 1.2 1.5 2.3 1.5 4.6 0 4-3.4 7.3-7.3 7.3-2.1 0-3.5-0.9-5.2-2.1-3.3-2.6-7.4-5-13.7-5z"/>
	<path d="m536 149.9c-3.8 0-6.9-2.9-6.9-6.9 0-3.8 3.1-6.9 6.9-6.9h3.7v-41.8h-3.7c-3.8 0-6.9-2.9-6.9-6.9 0-3.8 3.1-6.9 6.9-6.9h12.4c4.9 0 7.8 3.5 7.8 8.2v47.4h3.7c3.8 0 6.9 3.1 6.9 6.9s-3.1 6.9-6.9 6.9h-23.9zm11.4-78.8c-6.3 0-9.8-3.7-9.8-9.6 0-7 3.5-10.1 9.8-10.1 6.4 0 9.9 3.1 9.9 10.1 0 5.9-3.5 9.6-9.9 9.6z"/>
	<path d="m580 149.9c-3.8 0-6.9-2.9-6.9-6.9 0-3.8 3.1-6.9 6.9-6.9h3.7v-81.2h-3.7c-3.8 0-6.9-2.9-6.9-6.9 0-3.8 3.1-6.9 6.9-6.9h12.4c4.4 0 7.8 3.5 7.8 7.9v55l23.2-21.5c1.5-1.4 2.7-2 4.7-2h10.7c3.8 0 6.9 3.1 6.9 6.9s-3.1 6.9-6.9 6.9h-7.9l-13.4 11.9 20.9 29.9h5.8c3.8 0 6.9 3.1 6.9 6.9s-3.1 6.9-6.9 6.9h-11.3c-2.9 0-4.7-1.4-6-3.2l-20.3-30.6-6.4 5.8v14.2h3.7c3.8 0 6.9 3.1 6.9 6.9s-3.1 6.9-6.9 6.9h-23.9z"/>
	<path d="m663.1 149.9c-3.8 0-6.9-2.9-6.9-6.9 0-3.8 3.1-6.9 6.9-6.9h3.7v-41.8h-3.7c-3.8 0-6.9-2.9-6.9-6.9 0-3.8 3.1-6.9 6.9-6.9h12.4c4.9 0 7.8 3.5 7.8 8.2v47.4h3.7c3.8 0 6.9 3.1 6.9 6.9s-3.1 6.9-6.9 6.9h-23.9zm11.4-78.8c-6.3 0-9.8-3.7-9.8-9.6 0-7 3.5-10.1 9.8-10.1 6.4 0 9.9 3.1 9.9 10.1 0.1 5.9-3.5 9.6-9.9 9.6z"/>
	<path d="m739.5 48c0-3.8 3.1-6.9 6.9-6.9h12.1c4.6 0 8.3 3.7 8.3 8.3v86.8h3.8c3.8 0 6.9 3.1 6.9 6.9s-3.1 6.9-6.9 6.9h-12.1c-3.7 0-6.7-2.3-7.6-5.2-4.7 4.9-10.5 7.2-17.6 7.2-18.8 0-30.9-11.8-30.9-36.7s11.8-36.8 31-36.8c7.3 0 13.8 3.1 16.8 6.1v-29.7h-3.8c-3.9 0-6.9-3.1-6.9-6.9zm-4.5 44.5c-10.4 0-16.3 7.6-16.3 22.8 0 15 5.7 22.6 16 22.6 9.3 0 15.4-5.2 15.4-13.6v-24s-5.9-7.8-15.1-7.8z"/>
	<path d="m822.9 48c0-3.8 3.1-6.9 6.9-6.9h12.1c4.6 0 8.3 3.7 8.3 8.3v86.8h3.8c3.8 0 6.9 3.1 6.9 6.9s-3.1 6.9-6.9 6.9h-12.1c-3.7 0-6.7-2.3-7.6-5.2-4.7 4.9-10.5 7.2-17.6 7.2-18.8 0-30.9-11.8-30.9-36.7s11.8-36.8 31-36.8c7.3 0 13.8 3.1 16.8 6.1v-29.7h-3.8c-3.9 0-6.9-3.1-6.9-6.9zm-4.5 44.5c-10.4 0-16.3 7.6-16.3 22.8 0 15 5.7 22.6 16 22.6 9.3 0 15.4-5.2 15.4-13.6v-24c0.1 0-5.9-7.8-15.1-7.8z"/>
	<path d="m902.6 151.9c-20.6 0-33.5-11.8-33.5-36.7 0-25.1 12.8-36.8 33.5-36.8 20.6 0 33.5 11.8 33.5 36.8 0 24.9-12.9 36.7-33.5 36.7zm16.8-36.7c0-15.1-5.8-22.8-16.8-22.8s-16.8 7.6-16.8 22.8c0 15 5.8 22.6 16.8 22.6 11 0.1 16.8-7.6 16.8-22.6z"/>

<g fill="#1BFF09">
	<path d="m129.5 122.5c-6.7 9.1-17.2 14.4-28.5 14.4s-21.8-5.4-28.5-14.4c-2-2.4-5.1-3.6-8.3-3.1-3.1 0.5-5.7 2.6-6.8 5.6-1.1 2.9-0.6 6.3 1.4 8.7 10 13.2 25.6 20.9 42.2 20.9s32.2-7.7 42.2-20.9c2-2.4 2.5-5.8 1.4-8.7s-3.7-5.1-6.8-5.6c-3.2-0.5-6.3 0.7-8.3 3.1z"/>
	<path d="m74.5 101.6c2.3 0 4.6-0.9 6.2-2.6 1.7-1.7 2.6-3.9 2.6-6.2v-8.8c0-3.2-1.7-6.1-4.4-7.6s-6.1-1.6-8.8 0-4.4 4.5-4.4 7.6v8.8c0 2.3 0.9 4.6 2.6 6.2 1.6 1.7 3.9 2.6 6.2 2.6z"/>
	<path d="m127.5 101.6c2.3 0 4.6-0.9 6.2-2.6 1.7-1.7 2.6-3.9 2.6-6.2v-8.8c0-3.2-1.7-6.1-4.4-7.6-2.7-1.6-6.1-1.6-8.8 0s-4.4 4.5-4.4 7.6v8.8c0 2.3 0.9 4.6 2.6 6.2 1.6 1.7 3.9 2.6 6.2 2.6z"/>
	<path d="m101 4.4c-14.3 0-28.5 3.2-41.4 9.3s-24.4 15-33.5 26.1h-13.4c-3.2 0-6.1 1.7-7.6 4.4-1.6 2.7-1.6 6.1 0 8.8s4.5 4.4 7.6 4.4h1.9c-9.6 18.9-12.8 40.4-9.1 61.2s14.1 39.9 29.7 54.2c15.5 14.4 35.3 23.3 56.4 25.3 21.1 2.1 42.2-2.8 60.3-13.9 18-11.1 32-27.7 39.7-47.4s8.8-41.4 3-61.8-18-38.3-34.9-51.1c-17-12.6-37.5-19.5-58.7-19.5zm0 17.7c18.2 0 35.8 6.2 49.8 17.7h-99.6c14-11.5 31.7-17.7 49.8-17.7zm0 159c-19.3 0-37.9-7-52.4-19.7s-23.9-30.3-26.4-49.4 2-38.5 12.8-54.5h132.1c10.7 16 15.3 35.4 12.8 54.5s-11.9 36.7-26.4 49.4c-14.6 12.7-33.2 19.7-52.5 19.7z"/>
</g>
</svg>
